<svg width="17" height="16" viewBox="0 0 17 16" fill="none" xmlns="http://www.w3.org/2000/svg">
<path fill-rule="evenodd" clip-rule="evenodd" d="M7.15789 0C3.2047 0 0 3.01619 0 6.73684C0 10.4575 3.2047 13.4737 7.15789 13.4737C8.54027 13.4737 9.83111 13.1049 10.9254 12.4661L14.1997 15.5478C14.8403 16.1507 15.879 16.1507 16.5196 15.5478C17.1601 14.9449 17.1601 13.9674 16.5196 13.3645L13.2452 10.2827C13.9239 9.25281 14.3158 8.0379 14.3158 6.73684C14.3158 3.01619 11.1111 0 7.15789 0ZM2.38596 6.73684C2.38596 4.25641 4.52243 2.24561 7.15789 2.24561C9.79336 2.24561 11.9298 4.25641 11.9298 6.73684C11.9298 9.21728 9.79336 11.2281 7.15789 11.2281C4.52243 11.2281 2.38596 9.21728 2.38596 6.73684Z" fill="#8D8D8D"/>
</svg>
